<svg width="1206" height="1321" xmlns="http://www.w3.org/2000/svg" xmlns:xlink="http://www.w3.org/1999/xlink" xml:space="preserve" overflow="hidden"><defs><clipPath id="clip0"><rect x="1118" y="156" width="1206" height="1321"/></clipPath><clipPath id="clip1"><rect x="1684" y="305" width="641" height="643"/></clipPath><clipPath id="clip2"><rect x="1684" y="305" width="641" height="643"/></clipPath><clipPath id="clip3"><rect x="1684" y="305" width="641" height="643"/></clipPath><clipPath id="clip4"><rect x="1375" y="654" width="822" height="824"/></clipPath><clipPath id="clip5"><rect x="1375" y="654" width="822" height="824"/></clipPath><clipPath id="clip6"><rect x="1375" y="654" width="822" height="824"/></clipPath></defs><g clip-path="url(#clip0)" transform="translate(-1118 -156)"><path d="M1500 167 2049 167 2049 606 1500 606Z" stroke="#000000" stroke-width="21.8665" stroke-linecap="round" stroke-linejoin="round" stroke-miterlimit="10" fill="#F2F2F2" fill-rule="evenodd"/><path d="M1558.51 172 1558.51 220 1500 220 2049 220" stroke="#000000" stroke-width="21.8665" stroke-linecap="round" stroke-linejoin="round" stroke-miterlimit="10" fill="none" fill-rule="evenodd"/><path d="M1696 325 1620 401.001" stroke="#000000" stroke-width="21.8665" stroke-linecap="round" stroke-linejoin="round" stroke-miterlimit="10" fill="none" fill-rule="evenodd"/><path d="M1696 478.001 1620 402" stroke="#000000" stroke-width="21.8665" stroke-linecap="round" stroke-linejoin="round" stroke-miterlimit="10" fill="none" fill-rule="evenodd"/><path d="M1798 300 1739 499" stroke="#000000" stroke-width="21.8665" stroke-linecap="round" stroke-linejoin="round" stroke-miterlimit="10" fill="none" fill-rule="evenodd"/><path d="M1842 477 1918 401" stroke="#000000" stroke-width="21.8665" stroke-linecap="round" stroke-linejoin="round" stroke-miterlimit="10" fill="none" fill-rule="evenodd"/><path d="M1842 324 1918 400" stroke="#000000" stroke-width="21.8665" stroke-linecap="round" stroke-linejoin="round" stroke-miterlimit="10" fill="none" fill-rule="evenodd"/><path d="M1413.32 392.761C1406.22 406.636 1389.23 412.134 1375.35 405.042 1361.48 397.95 1355.98 380.952 1363.07 367.077 1370.16 353.202 1387.16 347.704 1401.04 354.796 1414.91 361.889 1420.41 378.886 1413.32 392.761Z" fill="#EA5A47" fill-rule="evenodd"/><path d="M1410.79 360.296C1412.3 375.787 1400.97 389.576 1385.48 391.093 1374.52 392.167 1363.94 386.758 1358.39 377.245 1359.87 392.747 1373.64 404.113 1389.15 402.631 1404.65 401.148 1416.01 387.38 1414.53 371.878 1414.14 367.79 1412.86 363.838 1410.79 360.296Z" fill="#D22F27" fill-rule="evenodd"/><path d="M1511.43 442.914C1504.34 456.789 1487.35 462.287 1473.47 455.195 1459.6 448.103 1454.1 431.106 1461.19 417.231 1468.28 403.355 1485.28 397.857 1499.15 404.949 1513.03 412.042 1518.53 429.039 1511.43 442.914Z" fill="#EA5A47" fill-rule="evenodd"/><path d="M1508.9 410.449C1510.42 425.94 1499.09 439.729 1483.6 441.247 1472.64 442.32 1462.06 436.911 1456.51 427.398 1457.99 442.901 1471.76 454.266 1487.26 452.784 1502.76 451.302 1514.13 437.533 1512.65 422.031 1512.26 417.943 1510.98 413.991 1508.9 410.449Z" fill="#D22F27" fill-rule="evenodd"/><path d="M1574.74 475.27C1567.64 489.145 1550.65 494.644 1536.77 487.551 1522.9 480.459 1517.4 463.462 1524.49 449.587 1531.58 435.712 1548.58 430.214 1562.45 437.306 1576.33 444.398 1581.83 461.395 1574.74 475.27Z" fill="#EA5A47" fill-rule="evenodd"/><path d="M1572.2 442.806C1573.72 458.297 1562.39 472.086 1546.9 473.604 1535.94 474.677 1525.36 469.268 1519.81 459.755 1521.29 475.257 1535.06 486.623 1550.56 485.141 1566.07 483.658 1577.43 469.89 1575.95 454.388 1575.56 450.3 1574.28 446.348 1572.2 442.806Z" fill="#D22F27" fill-rule="evenodd"/><path d="M1644.37 510.863C1637.27 524.738 1620.28 530.236 1606.4 523.144 1592.53 516.052 1587.03 499.055 1594.12 485.18 1601.21 471.305 1618.21 465.806 1632.09 472.899 1645.96 479.991 1651.46 496.988 1644.37 510.863Z" fill="#EA5A47" fill-rule="evenodd"/><path d="M1641.83 478.399C1643.35 493.89 1632.02 507.678 1616.53 509.196 1605.57 510.27 1594.99 504.861 1589.44 495.347 1590.92 510.85 1604.69 522.216 1620.19 520.734 1635.7 519.251 1647.06 505.482 1645.58 489.98 1645.19 485.893 1643.91 481.941 1641.83 478.399Z" fill="#D22F27" fill-rule="evenodd"/><path d="M1397.61 508.483C1390.51 522.358 1373.52 527.856 1359.64 520.764 1345.77 513.672 1340.27 496.675 1347.36 482.8 1354.45 468.925 1371.45 463.426 1385.32 470.519 1399.2 477.611 1404.7 494.608 1397.61 508.483Z" fill="#FCEA2B" fill-rule="evenodd"/><path d="M1395.07 476.018C1396.59 491.508 1385.27 505.298 1369.78 506.815 1358.81 507.89 1348.23 502.48 1342.68 492.966 1344.16 508.468 1357.93 519.833 1373.43 518.35 1388.94 516.867 1400.3 503.098 1398.82 487.597 1398.43 483.51 1397.15 479.558 1395.07 476.018Z" fill="#F1B31C" fill-rule="evenodd"/><path d="M1464.07 542.458C1456.98 556.333 1439.98 561.831 1426.11 554.739 1412.23 547.646 1406.73 530.649 1413.83 516.774 1420.92 502.899 1437.92 497.401 1451.79 504.493 1465.67 511.586 1471.16 528.583 1464.07 542.458Z" fill="#FCEA2B" fill-rule="evenodd"/><path d="M1461.54 509.993C1463.06 525.484 1451.73 539.272 1436.24 540.791 1425.28 541.866 1414.7 536.456 1409.15 526.941 1410.63 542.444 1424.4 553.81 1439.9 552.329 1455.4 550.848 1466.77 537.08 1465.29 521.577 1464.9 517.489 1463.62 513.535 1461.54 509.993Z" fill="#F1B31C" fill-rule="evenodd"/><path d="M1612.83 618.496C1605.74 632.371 1588.74 637.87 1574.87 630.777 1560.99 623.685 1555.49 606.688 1562.58 592.813 1569.68 578.938 1586.67 573.44 1600.55 580.532 1614.42 587.624 1619.92 604.621 1612.83 618.496Z" fill="#FCEA2B" fill-rule="evenodd"/><path d="M1610.3 586.031C1611.82 601.522 1600.49 615.311 1585 616.829 1574.04 617.903 1563.45 612.494 1557.91 602.979 1559.39 618.482 1573.16 629.846 1588.66 628.364 1604.16 626.881 1615.53 613.111 1614.04 597.61 1613.65 593.523 1612.37 589.572 1610.3 586.031Z" fill="#F1B31C" fill-rule="evenodd"/><path d="M1682.46 654.089C1675.37 667.964 1658.37 673.462 1644.5 666.37 1630.62 659.278 1625.12 642.281 1632.22 628.406 1639.31 614.531 1656.3 609.032 1670.18 616.125 1684.06 623.217 1689.55 640.214 1682.46 654.089Z" fill="#FCEA2B" fill-rule="evenodd"/><path d="M1679.93 621.624C1681.45 637.115 1670.12 650.903 1654.63 652.422 1643.67 653.498 1633.09 648.088 1627.54 638.572 1629.02 654.075 1642.79 665.442 1658.29 663.96 1673.79 662.48 1685.16 648.712 1683.68 633.209 1683.29 629.121 1682.01 625.167 1679.93 621.624Z" fill="#F1B31C" fill-rule="evenodd"/><path d="M1347.45 606.6C1340.36 620.475 1323.36 625.973 1309.49 618.881 1295.61 611.789 1290.11 594.792 1297.21 580.917 1304.3 567.042 1321.3 561.543 1335.17 568.635 1349.05 575.728 1354.55 592.725 1347.45 606.6Z" fill="#F4AA41" fill-rule="evenodd"/><path d="M1344.92 574.135C1346.44 589.626 1335.11 603.414 1319.62 604.933 1308.66 606.009 1298.08 600.599 1292.53 591.083 1294.01 606.586 1307.78 617.953 1323.28 616.471 1338.78 614.991 1350.15 601.222 1348.67 585.72 1348.28 581.631 1347 577.678 1344.92 574.135Z" fill="#E27022" fill-rule="evenodd"/><path d="M1413.92 640.575C1406.83 654.45 1389.83 659.948 1375.95 652.856 1362.08 645.764 1356.58 628.767 1363.67 614.892 1370.77 601.017 1387.76 595.518 1401.64 602.611 1415.51 609.703 1421.01 626.7 1413.92 640.575Z" fill="#F4AA41" fill-rule="evenodd"/><path d="M1411.39 608.11C1412.91 623.601 1401.58 637.389 1386.09 638.908 1375.13 639.983 1364.54 634.573 1358.99 625.057 1360.48 640.561 1374.24 651.927 1389.75 650.445 1405.25 648.965 1416.61 635.197 1415.13 619.694 1414.74 615.605 1413.46 611.652 1411.39 608.11Z" fill="#E27022" fill-rule="evenodd"/><path d="M1505.71 687.492C1498.61 701.367 1481.62 706.866 1467.74 699.774 1453.87 692.681 1448.37 675.684 1455.46 661.809 1462.55 647.934 1479.55 642.436 1493.43 649.528 1507.3 656.62 1512.8 673.617 1505.71 687.492Z" fill="#F4AA41" fill-rule="evenodd"/><path d="M1503.17 655.027C1504.69 670.518 1493.37 684.306 1477.88 685.825 1466.91 686.901 1456.33 681.491 1450.78 671.975 1452.26 687.478 1466.03 698.845 1481.53 697.363 1497.03 695.882 1508.4 682.114 1506.92 666.612 1506.53 662.523 1505.25 658.569 1503.17 655.027Z" fill="#E27022" fill-rule="evenodd"/><path d="M1601.03 736.218C1593.94 750.093 1576.94 755.592 1563.07 748.499 1549.19 741.407 1543.69 724.41 1550.79 710.535 1557.88 696.66 1574.87 691.162 1588.75 698.254 1602.62 705.346 1608.12 722.343 1601.03 736.218Z" fill="#F4AA41" fill-rule="evenodd"/><path d="M1598.5 703.754C1600.02 719.245 1588.69 733.033 1573.2 734.552 1562.24 735.627 1551.66 730.217 1546.11 720.702 1547.59 736.205 1561.36 747.571 1576.86 746.089 1592.36 744.609 1603.73 730.841 1602.25 715.338 1601.86 711.249 1600.58 707.296 1598.5 703.754Z" fill="#E27022" fill-rule="evenodd"/><path d="M1128.91 702.7 1345.79 278.406" stroke="#000000" stroke-width="20.625" stroke-linecap="round" stroke-linejoin="round" stroke-miterlimit="10" fill="none" fill-rule="evenodd"/><path d="M1650.65 514.075 1751.14 565.441" stroke="#000000" stroke-width="20.625" stroke-linecap="round" stroke-linejoin="round" stroke-miterlimit="10" fill="none" fill-rule="evenodd"/><path d="M1580.29 478.113 1588.3 482.206" stroke="#000000" stroke-width="20.625" stroke-linecap="round" stroke-linejoin="round" stroke-miterlimit="10" fill="none" fill-rule="evenodd"/><path d="M1516.84 445.679 1519.26 446.918" stroke="#000000" stroke-width="20.625" stroke-linecap="round" stroke-linejoin="round" stroke-miterlimit="10" fill="none" fill-rule="evenodd"/><path d="M1419.46 395.901 1455.31 414.226" stroke="#000000" stroke-width="20.625" stroke-linecap="round" stroke-linejoin="round" stroke-miterlimit="10" fill="none" fill-rule="evenodd"/><path d="M1320.51 345.325 1357.7 364.332" stroke="#000000" stroke-width="20.625" stroke-linecap="round" stroke-linejoin="round" stroke-miterlimit="10" fill="none" fill-rule="evenodd"/><path d="M1627.12 816.315 1786.84 503.848" stroke="#000000" stroke-width="20.625" stroke-linecap="round" stroke-linejoin="round" stroke-miterlimit="10" fill="none" fill-rule="evenodd"/><path d="M1413.32 392.761C1406.22 406.636 1389.23 412.134 1375.35 405.042 1361.48 397.95 1355.98 380.952 1363.07 367.077 1370.16 353.202 1387.16 347.704 1401.04 354.796 1414.91 361.889 1420.41 378.886 1413.32 392.761Z" stroke="#000000" stroke-width="14.0434" stroke-miterlimit="8" fill="none" fill-rule="evenodd"/><path d="M1511.43 442.914C1504.34 456.789 1487.34 462.287 1473.47 455.195 1459.59 448.103 1454.1 431.106 1461.19 417.231 1468.28 403.355 1485.28 397.857 1499.15 404.949 1513.03 412.042 1518.53 429.039 1511.43 442.914Z" stroke="#000000" stroke-width="14.0434" stroke-miterlimit="8" fill="none" fill-rule="evenodd"/><path d="M1574.74 475.27C1567.64 489.145 1550.65 494.644 1536.77 487.551 1522.9 480.459 1517.4 463.462 1524.49 449.587 1531.58 435.712 1548.58 430.214 1562.45 437.306 1576.33 444.398 1581.83 461.395 1574.74 475.27Z" stroke="#000000" stroke-width="14.0434" stroke-miterlimit="8" fill="none" fill-rule="evenodd"/><path d="M1644.37 510.863C1637.27 524.738 1620.28 530.236 1606.4 523.144 1592.53 516.052 1587.03 499.055 1594.12 485.18 1601.21 471.305 1618.21 465.806 1632.09 472.899 1645.96 479.991 1651.46 496.988 1644.37 510.863Z" stroke="#000000" stroke-width="14.0434" stroke-miterlimit="8" fill="none" fill-rule="evenodd"/><path d="M1687.42 656.624 1694.66 660.322" stroke="#000000" stroke-width="20.625" stroke-linecap="round" stroke-linejoin="round" stroke-miterlimit="10" fill="none" fill-rule="evenodd"/><path d="M1618.08 621.179 1627.17 625.824" stroke="#000000" stroke-width="20.625" stroke-linecap="round" stroke-linejoin="round" stroke-miterlimit="10" fill="none" fill-rule="evenodd"/><path d="M1469.78 545.377 1556.87 589.895" stroke="#000000" stroke-width="20.625" stroke-linecap="round" stroke-linejoin="round" stroke-miterlimit="10" fill="none" fill-rule="evenodd"/><path d="M1402.48 510.974 1408.95 514.284" stroke="#000000" stroke-width="20.625" stroke-linecap="round" stroke-linejoin="round" stroke-miterlimit="10" fill="none" fill-rule="evenodd"/><path d="M1270.36 443.441 1342.08 480.099" stroke="#000000" stroke-width="20.625" stroke-linecap="round" stroke-linejoin="round" stroke-miterlimit="10" fill="none" fill-rule="evenodd"/><path d="M1397.61 508.483C1390.51 522.358 1373.52 527.856 1359.64 520.764 1345.77 513.672 1340.27 496.675 1347.36 482.8 1354.45 468.925 1371.45 463.426 1385.32 470.519 1399.2 477.611 1404.7 494.608 1397.61 508.483Z" stroke="#000000" stroke-width="14.0434" stroke-miterlimit="8" fill="none" fill-rule="evenodd"/><path d="M1464.07 542.458C1456.98 556.333 1439.98 561.831 1426.11 554.739 1412.23 547.646 1406.73 530.649 1413.83 516.774 1420.92 502.899 1437.92 497.401 1451.79 504.493 1465.67 511.586 1471.16 528.583 1464.07 542.458Z" stroke="#000000" stroke-width="14.0434" stroke-miterlimit="8" fill="none" fill-rule="evenodd"/><path d="M1612.83 618.496C1605.74 632.371 1588.74 637.87 1574.87 630.777 1560.99 623.685 1555.49 606.688 1562.58 592.813 1569.68 578.938 1586.67 573.44 1600.55 580.532 1614.42 587.624 1619.92 604.621 1612.83 618.496Z" stroke="#000000" stroke-width="14.0434" stroke-miterlimit="8" fill="none" fill-rule="evenodd"/><path d="M1682.46 654.089C1675.37 667.964 1658.37 673.463 1644.5 666.37 1630.62 659.278 1625.12 642.281 1632.22 628.406 1639.31 614.531 1656.31 609.033 1670.18 616.125 1684.06 623.217 1689.55 640.214 1682.46 654.089Z" stroke="#000000" stroke-width="14.0434" stroke-miterlimit="8" fill="none" fill-rule="evenodd"/><path d="M1606.69 739.11 1644.5 758.439" stroke="#000000" stroke-width="20.625" stroke-linecap="round" stroke-linejoin="round" stroke-miterlimit="10" fill="none" fill-rule="evenodd"/><path d="M1511.5 690.453 1544.99 707.575" stroke="#000000" stroke-width="20.625" stroke-linecap="round" stroke-linejoin="round" stroke-miterlimit="10" fill="none" fill-rule="evenodd"/><path d="M1419.43 643.391 1450.18 659.108" stroke="#000000" stroke-width="20.625" stroke-linecap="round" stroke-linejoin="round" stroke-miterlimit="10" fill="none" fill-rule="evenodd"/><path d="M1352.96 609.416 1358.13 612.057" stroke="#000000" stroke-width="20.625" stroke-linecap="round" stroke-linejoin="round" stroke-miterlimit="10" fill="none" fill-rule="evenodd"/><path d="M1220.21 541.558 1291.66 578.082" stroke="#000000" stroke-width="20.625" stroke-linecap="round" stroke-linejoin="round" stroke-miterlimit="10" fill="none" fill-rule="evenodd"/><path d="M1347.45 606.6C1340.36 620.475 1323.36 625.973 1309.49 618.881 1295.61 611.789 1290.11 594.792 1297.21 580.917 1304.3 567.042 1321.3 561.543 1335.17 568.635 1349.05 575.728 1354.54 592.725 1347.45 606.6Z" stroke="#000000" stroke-width="14.0434" stroke-miterlimit="8" fill="none" fill-rule="evenodd"/><path d="M1413.92 640.575C1406.83 654.45 1389.83 659.948 1375.95 652.856 1362.08 645.764 1356.58 628.767 1363.67 614.892 1370.77 601.017 1387.76 595.518 1401.64 602.611 1415.51 609.703 1421.01 626.7 1413.92 640.575Z" stroke="#000000" stroke-width="14.0434" stroke-miterlimit="8" fill="none" fill-rule="evenodd"/><path d="M1505.71 687.492C1498.61 701.367 1481.62 706.866 1467.74 699.774 1453.87 692.681 1448.37 675.684 1455.46 661.809 1462.55 647.934 1479.55 642.436 1493.42 649.528 1507.3 656.62 1512.8 673.617 1505.71 687.492Z" stroke="#000000" stroke-width="14.0434" stroke-miterlimit="8" fill="none" fill-rule="evenodd"/><path d="M1601.03 736.219C1593.94 750.094 1576.94 755.592 1563.07 748.5 1549.19 741.407 1543.69 724.41 1550.79 710.535 1557.88 696.66 1574.88 691.162 1588.75 698.254 1602.63 705.347 1608.12 722.344 1601.03 736.219Z" stroke="#000000" stroke-width="14.0434" stroke-miterlimit="8" fill="none" fill-rule="evenodd"/><g clip-path="url(#clip1)"><g clip-path="url(#clip2)"><g clip-path="url(#clip3)"><path d="M455.626 264.988C455.626 264.988 439.493 260.984 446.038 246.55L486.071 180.025 453.625 149.652 447.136 143.578 383.708 185.269C375.324 189.014 365.601 184.233 363.446 175.309L346.673 105.836 302.229 105.836 293.34 105.836 276.62 175.043C274.497 183.837 264.975 189.085 256.687 185.457 256.556 185.401 256.424 185.34 256.292 185.281L192.863 143.588 186.374 149.662 153.928 180.036 193.961 246.561C200.507 260.995 184.374 264.999 184.374 264.999L109.027 283.732 110.492 328.151 110.786 337.036 185.116 352.405C193.579 355.642 197.117 365.698 192.546 373.521L192.254 374.021 152.221 440.545 184.668 470.918 191.156 476.992 254.585 435.301C254.717 435.241 254.852 435.187 254.98 435.124 254.98 435.124 255.083 435.086 255.276 435.025 265.592 431.676 276.547 438.103 279.092 448.647L295.045 514.724 303.934 514.724 348.379 514.724 365.152 445.25C367.307 436.326 377.031 431.546 385.413 435.29L448.842 476.981 455.331 470.908 487.777 440.534 447.744 374.009 447.453 373.509C442.881 365.687 446.42 355.632 454.882 352.394L529.213 337.025 529.506 328.14 530.972 283.72 455.626 264.988ZM320 399.168C270.908 399.168 231.111 359.371 231.111 310.279 231.111 261.188 270.908 221.39 320 221.39 369.092 221.39 408.889 261.188 408.889 310.279 408.889 359.371 369.092 399.168 320 399.168Z" fill="#D0CFCE" transform="matrix(1 0 0 1.00156 1684 306)"/><path d="M320 221.39C270.908 221.39 231.111 261.188 231.111 310.279 231.111 359.371 270.908 399.168 320 399.168 369.092 399.168 408.889 359.371 408.889 310.279 408.889 261.188 369.092 221.39 320 221.39ZM320 354.724C295.454 354.724 275.556 334.825 275.556 310.279 275.556 285.733 295.454 265.835 320 265.835 344.546 265.835 364.444 285.733 364.444 310.279 364.444 334.825 344.546 354.724 320 354.724Z" fill="#9B9B9A" transform="matrix(1 0 0 1.00156 1684 306)"/><path d="M364.444 310.279C364.444 334.825 344.546 354.724 320 354.724 295.454 354.724 275.556 334.825 275.556 310.279 275.556 285.733 295.454 265.835 320 265.835 344.546 265.835 364.444 285.733 364.444 310.279Z" stroke="#000000" stroke-width="17.7778" stroke-linecap="round" stroke-linejoin="round" stroke-miterlimit="10" fill="none" transform="matrix(1 0 0 1.00156 1684 306)"/><path d="M408.889 310.279C408.889 359.371 369.092 399.168 320 399.168 270.908 399.168 231.111 359.371 231.111 310.279 231.111 261.187 270.908 221.39 320 221.39 369.092 221.39 408.889 261.187 408.889 310.279Z" stroke="#000000" stroke-width="17.7778" stroke-linecap="round" stroke-linejoin="round" stroke-miterlimit="10" fill="none" transform="matrix(1 0 0 1.00156 1684 306)"/><path d="M276.614 175.041C274.491 183.836 264.97 189.084 256.681 185.456 256.55 185.398 256.418 185.34 256.285 185.279L192.857 143.588 186.368 149.662 153.922 180.036 193.955 246.56C200.5 260.995 184.368 264.999 184.368 264.999L109.02 283.732 110.486 328.152 110.78 337.036 185.11 352.406 185.11 352.406C193.573 355.643 197.111 365.699 192.54 373.521L192.249 374.021 152.216 440.545 184.662 470.918 191.151 476.993 254.58 435.301C254.712 435.241 254.846 435.187 254.975 435.125 254.975 435.125 255.078 435.087 255.27 435.025 265.587 431.676 276.541 438.103 279.087 448.646L295.04 514.723 303.929 514.723 348.373 514.723 365.146 445.25C367.301 436.325 377.025 431.545 385.407 435.29L385.407 435.29 448.836 476.981 455.324 470.907 487.771 440.533 447.738 374.009 447.446 373.509C442.875 365.686 446.413 355.631 454.876 352.394L454.876 352.394 529.207 337.024 529.501 328.14 530.966 283.719 455.619 264.987C455.619 264.987 439.486 260.982 446.032 246.548L486.065 180.023 453.619 149.65 447.13 143.575 383.701 185.267 383.701 185.267C375.319 189.011 365.595 184.23 363.44 175.306L346.667 105.835 302.222 105.835 293.333 105.835 276.614 175.041" stroke="#000000" stroke-width="17.7778" stroke-linecap="round" stroke-linejoin="round" stroke-miterlimit="10" fill="none" transform="matrix(1 0 0 1.00156 1684 306)"/></g></g></g><g clip-path="url(#clip4)"><g clip-path="url(#clip5)"><g clip-path="url(#clip6)"><path d="M411 125.346 125.583 125.346 125.583 182.903 359.625 391.021 359.625 639.573 462.375 696.179 462.375 391.021 696.417 182.904 696.417 125.346 411 125.346" fill="#FCEA2B" transform="matrix(1 0 0 1 1375 655)"/><path d="M411 652.956 411 652.956 448.313 672.156 448.313 387.117 682.355 177.909 682.355 138.958 565.334 138.958 565.334 182.957 411.209 375.13Z" fill="#F1B31C" transform="matrix(1 0 0 1 1375 655)"/><path d="M411 125.346 125.583 125.346 125.583 182.903 359.625 391.021 359.625 639.573 462.375 696.179 462.375 391.021 696.417 182.904 696.417 125.346 411 125.346" stroke="#000000" stroke-width="22.8333" stroke-linecap="round" stroke-linejoin="round" stroke-miterlimit="10" fill="none" transform="matrix(1 0 0 1 1375 655)"/></g></g></g></g></svg>