<svg width="181" height="190" xmlns="http://www.w3.org/2000/svg" xmlns:xlink="http://www.w3.org/1999/xlink" xml:space="preserve" overflow="hidden"><defs><clipPath id="clip0"><rect x="2051" y="862" width="181" height="190"/></clipPath></defs><g clip-path="url(#clip0)" transform="translate(-2051 -862)"><path d="M2051 1048 2051 865.999 2231 865.999 2231 1048Z" fill="#FFFFFF" fill-rule="evenodd"/><path d="M2060 929 2060 868 2231 868 2231 929Z" fill="#B399C8" fill-rule="evenodd"/><path d="M2062.25 929 2222.75 929C2223.33 929 2223.85 929.137 2224.38 929.343 2226.48 930.235 2228 932.843 2228 935.862L2228 1041.14C2228 1044.16 2226.48 1046.76 2224.38 1047.66 2223.85 1047.86 2223.33 1048 2222.75 1048L2062.25 1048C2061.67 1048 2061.15 1047.86 2060.62 1047.66 2058.52 1046.76 2057 1044.16 2057 1041.14L2057 935.862C2057 932.843 2058.52 930.235 2060.62 929.343 2061.15 929.137 2061.67 929 2062.25 929Z" fill="#D0CFCE" fill-rule="evenodd"/><path d="M2057.5 926.5 2057.5 868.745C2057.5 866.953 2059.95 865.5 2062.98 865.5L2223.02 865.5C2226.05 865.5 2228.5 866.953 2228.5 868.745L2228.5 926.5" stroke="#000000" stroke-width="6.875" stroke-linecap="round" stroke-linejoin="round" stroke-miterlimit="10" fill="none" fill-rule="evenodd"/><path d="M2062.75 929.499 2223.25 929.499C2223.83 929.499 2224.35 929.637 2224.88 929.843 2226.98 930.735 2228.5 933.343 2228.5 936.362L2228.5 1041.64C2228.5 1044.66 2226.98 1047.26 2224.88 1048.16 2224.35 1048.36 2223.83 1048.5 2223.25 1048.5L2062.75 1048.5C2062.17 1048.5 2061.65 1048.36 2061.12 1048.16 2059.02 1047.26 2057.5 1044.66 2057.5 1041.64L2057.5 936.362C2057.5 933.343 2059.02 930.735 2061.12 929.843 2061.65 929.637 2062.17 929.499 2062.75 929.499Z" stroke="#000000" stroke-width="6.875" stroke-linecap="round" stroke-linejoin="round" stroke-miterlimit="10" fill="none" fill-rule="evenodd"/><path d="M2112.5 962.5 2077.5 962.5" stroke="#000000" stroke-width="6.875" stroke-linecap="round" stroke-linejoin="round" stroke-miterlimit="10" fill="none" fill-rule="evenodd"/><path d="M2147 885.5 2147 885.5C2179.31 885.5 2205.5 888.195 2205.5 891.52L2205.5 901.479C2205.5 904.804 2179.31 907.5 2147 907.5L2147 907.5C2114.69 907.5 2088.5 904.804 2088.5 901.479L2088.5 891.52C2088.5 888.195 2114.69 885.5 2147 885.5Z" stroke="#000000" stroke-width="6.875" stroke-linecap="round" stroke-linejoin="round" stroke-miterlimit="10" fill="none" fill-rule="evenodd"/><path d="M2191.5 985.5 2082.49 985.5" stroke="#000000" stroke-width="6.875" stroke-linecap="round" stroke-linejoin="round" stroke-miterlimit="10" fill="none" fill-rule="evenodd"/></g></svg>