<svg width="1431" height="1574" xmlns="http://www.w3.org/2000/svg" xmlns:xlink="http://www.w3.org/1999/xlink" xml:space="preserve" overflow="hidden"><defs><clipPath id="clip0"><rect x="1162" y="1096" width="1431" height="1574"/></clipPath><clipPath id="clip1"><path d="M2023.02 1670.26 2592.65 2100.26 2162.65 2669.89 1593.02 2239.89Z" fill-rule="evenodd" clip-rule="evenodd"/></clipPath><clipPath id="clip2"><path d="M2023.02 1670.26 2592.65 2100.26 2162.65 2669.89 1593.02 2239.89Z" fill-rule="evenodd" clip-rule="evenodd"/></clipPath><clipPath id="clip3"><path d="M2023.02 1670.26 2592.65 2100.26 2162.65 2669.89 1593.02 2239.89Z" fill-rule="evenodd" clip-rule="evenodd"/></clipPath><clipPath id="clip4"><rect x="1161" y="1598" width="791" height="789"/></clipPath><clipPath id="clip5"><rect x="1161" y="1598" width="791" height="789"/></clipPath><clipPath id="clip6"><rect x="1161" y="1598" width="791" height="789"/></clipPath><clipPath id="clip7"><path d="M1462.39 1349.26 2309.04 1096.98 2561.32 1943.63 1714.67 2195.91Z" fill-rule="evenodd" clip-rule="evenodd"/></clipPath><clipPath id="clip8"><path d="M1462.39 1349.26 2309.04 1096.98 2561.32 1943.63 1714.67 2195.91Z" fill-rule="evenodd" clip-rule="evenodd"/></clipPath><clipPath id="clip9"><path d="M1462.39 1349.26 2309.04 1096.98 2561.32 1943.63 1714.67 2195.91Z" fill-rule="evenodd" clip-rule="evenodd"/></clipPath></defs><g clip-path="url(#clip0)" transform="translate(-1162 -1096)"><g clip-path="url(#clip1)"><g clip-path="url(#clip2)"><g clip-path="url(#clip3)"><path d="M2111.52 1898.52 2065.84 1926.14 2093.45 1971.82 2055.52 2054.97 1986.1 2064.67 1984.01 2100.35 1948.33 2098.25 1942.36 2106.16 1940.11 2191.41 1983.7 2199.47M1961.52 2319.35 1991.3 2304.57 2026.98 2306.66 2058.48 2380.12 2104.01 2402.07 2127.9 2370.42 2124.02 2342.65 2156.79 2323.92" stroke="#000000" stroke-width="19.8253" stroke-linecap="round" stroke-linejoin="round" fill="none"/><path d="M2143.17 1922.41 2046.29 1836.86 1974.62 1931.8 1916.57 2025.1 1837.26 2113.77 1765.59 2208.71 1862.47 2294.26 1955.47 2352.04 2044.44 2431.62 2145.35 2495.37 2217.02 2400.43 2280.56 2299.86 2354.38 2218.47 2426.04 2123.53 2325.13 2059.77 2236.17 1980.2 2143.17 1922.41Z" fill="#B1CC33" fill-rule="evenodd"/><path d="M2046.29 1836.86 2052.85 1829.43C2050.78 1827.6 2048.04 1826.72 2045.29 1827 2042.55 1827.28 2040.04 1828.69 2038.38 1830.89L2046.29 1836.86ZM2143.17 1922.41 2136.6 1929.84C2137.02 1930.21 2137.47 1930.54 2137.93 1930.83L2143.17 1922.41ZM1974.62 1931.8 1966.71 1925.83C1966.53 1926.07 1966.36 1926.31 1966.21 1926.56L1974.62 1931.8ZM1916.57 2025.1 1923.96 2031.7C1924.34 2031.28 1924.69 2030.82 1924.99 2030.33L1916.57 2025.1ZM1837.26 2113.77 1829.87 2107.16C1829.69 2107.36 1829.51 2107.58 1829.35 2107.79L1837.26 2113.77ZM1765.59 2208.71 1757.68 2202.73C1754.56 2206.87 1755.15 2212.71 1759.03 2216.14L1765.59 2208.71ZM1862.47 2294.26 1855.91 2301.69C1856.33 2302.05 1856.77 2302.38 1857.24 2302.68L1862.47 2294.26ZM1955.47 2352.04 1962.08 2344.65C1961.65 2344.27 1961.19 2343.92 1960.7 2343.62L1955.47 2352.04ZM2044.44 2431.62 2037.83 2439.01C2038.24 2439.37 2038.68 2439.71 2039.14 2440L2044.44 2431.62ZM2145.35 2495.37 2140.05 2503.75C2144.41 2506.51 2150.15 2505.46 2153.26 2501.35L2145.35 2495.37ZM2217.02 2400.43 2224.93 2406.41C2225.09 2406.19 2225.25 2405.96 2225.4 2405.73L2217.02 2400.43ZM2280.56 2299.86 2273.22 2293.2C2272.83 2293.62 2272.48 2294.08 2272.18 2294.56L2280.56 2299.86ZM2354.38 2218.47 2361.72 2225.13C2361.92 2224.91 2362.11 2224.68 2362.29 2224.44L2354.38 2218.47ZM2426.04 2123.53 2433.96 2129.5C2435.63 2127.29 2436.29 2124.48 2435.8 2121.75 2435.3 2119.02 2433.68 2116.63 2431.34 2115.15L2426.04 2123.53ZM2325.13 2059.77 2318.52 2067.16C2318.93 2067.53 2319.37 2067.86 2319.84 2068.15L2325.13 2059.77ZM2236.17 1980.2 2242.77 1972.81C2242.35 1972.42 2241.89 1972.08 2241.4 1971.78L2236.17 1980.2ZM2039.73 1844.29 2136.6 1929.84 2149.73 1914.98 2052.85 1829.43 2039.73 1844.29ZM1982.53 1937.77 2054.2 1842.83 2038.38 1830.89 1966.71 1925.83 1982.53 1937.77ZM1924.99 2030.33 1983.04 1937.04 1966.21 1926.56 1908.16 2019.86 1924.99 2030.33ZM1844.65 2120.38 1923.96 2031.7 1909.18 2018.49 1829.87 2107.16 1844.65 2120.38ZM1773.5 2214.68 1845.17 2119.74 1829.35 2107.79 1757.68 2202.73 1773.5 2214.68ZM1869.03 2286.83 1772.15 2201.28 1759.03 2216.14 1855.91 2301.69 1869.03 2286.83ZM1960.7 2343.62 1867.7 2285.84 1857.24 2302.68 1950.24 2360.46 1960.7 2343.62ZM2051.05 2424.23 1962.08 2344.65 1948.86 2359.43 2037.83 2439.01 2051.05 2424.23ZM2150.64 2486.99 2049.73 2423.24 2039.14 2440 2140.05 2503.75 2150.64 2486.99ZM2209.1 2394.46 2137.44 2489.4 2153.26 2501.35 2224.93 2406.41 2209.1 2394.46ZM2272.18 2294.56 2208.64 2395.14 2225.4 2405.73 2288.94 2305.15 2272.18 2294.56ZM2347.04 2211.81 2273.22 2293.2 2287.9 2306.52 2361.72 2225.13 2347.04 2211.81ZM2418.13 2117.56 2346.47 2212.5 2362.29 2224.44 2433.96 2129.5 2418.13 2117.56ZM2319.84 2068.15 2420.75 2131.91 2431.34 2115.15 2330.43 2051.39 2319.84 2068.15ZM2229.56 1987.58 2318.52 2067.16 2331.74 2052.39 2242.77 1972.81 2229.56 1987.58ZM2137.93 1930.83 2230.93 1988.61 2241.4 1971.78 2148.4 1913.99 2137.93 1930.83Z" fill="#B1CC33"/><path d="M2111.52 1898.52 2065.84 1926.14 2093.45 1971.82 2055.52 2054.97 1986.1 2064.67 1984.01 2100.35 1948.33 2098.25 1942.36 2106.16 1940.11 2191.41 1983.7 2199.47 1979.51 2270.83 1927.86 2306.36 1931.74 2334.12 1991.3 2304.57 2026.98 2306.66 2058.48 2380.12 2104.01 2402.07 2127.9 2370.42 2124.02 2342.65 2189.56 2305.19 2258.82 2345.05" stroke="#EA5A47" stroke-width="19.8253" stroke-linejoin="round" fill="none"/><path d="M1856.96 2153.48C1870.07 2163.37 1888.72 2160.77 1898.61 2147.66 1908.51 2134.55 1905.9 2115.91 1892.8 2106.01 1879.69 2096.11 1861.04 2098.72 1851.14 2111.83L1803.37 2175.12C1798.67 2175.11 1794 2175.76 1789.48 2177.06L1765.59 2208.71 1773.5 2214.68 1797.24 2232.59 1836.01 2261.86C1838.45 2259.69 1840.72 2257.25 1842.77 2254.54 1859.26 2232.7 1854.92 2201.62 1833.07 2185.13 1824.33 2178.53 1822.6 2166.1 1829.19 2157.36 1835.79 2148.62 1848.22 2146.88 1856.96 2153.48Z" fill="#5C9E31" fill-rule="evenodd"/><path d="M2154.05 2438.6C2142.91 2430.19 2127.06 2432.4 2118.65 2443.55 2110.24 2454.69 2112.45 2470.54 2123.59 2478.95 2134.73 2487.36 2150.59 2485.15 2159 2474L2159.03 2473.96 2199.61 2420.21C2203.59 2420.22 2207.57 2419.66 2211.41 2418.56L2241.87 2378.2C2241.9 2365.41 2236.12 2352.76 2225.12 2344.45 2206.55 2330.43 2180.13 2334.12 2166.11 2352.69 2152.1 2371.27 2155.79 2397.68 2174.36 2411.7 2181.78 2417.31 2183.26 2427.88 2177.65 2435.3 2172.05 2442.73 2161.48 2444.21 2154.05 2438.6Z" fill="#5C9E31" fill-rule="evenodd"/><path d="M2171.54 2277.51C2166.19 2274.57 2160.99 2271.2 2155.97 2267.41 2099.17 2224.54 2087.88 2143.73 2130.76 2086.92 2134.55 2081.91 2138.63 2077.25 2142.97 2072.94 2103.49 2065.45 2061.36 2080.14 2035.51 2114.38 1999.23 2162.45 2008.78 2230.82 2056.84 2267.11 2091.08 2292.95 2135.63 2295.54 2171.54 2277.51Z" fill="#92D3F5" fill-rule="evenodd"/><path d="M2158.76 2008.7C2178.42 2023.54 2206.39 2019.64 2221.24 1999.97 2226.76 1992.66 2229.69 1984.19 2230.17 1975.67L2170.96 1930.97C2162.9 1933.77 2155.56 1938.91 2150.03 1946.22 2135.19 1965.89 2139.1 1993.86 2158.76 2008.7Z" fill="#5C9E31" fill-rule="evenodd"/><path d="M2272.04 2273.36C2329.32 2252.05 2358.49 2188.32 2337.17 2131.03 2315.85 2073.74 2252.13 2044.58 2194.84 2065.9 2137.55 2087.22 2108.39 2150.94 2129.7 2208.23 2151.02 2265.52 2214.75 2294.68 2272.04 2273.36Z" fill="#B1CC33"/><path d="M2338.99 2090.33C2315.15 2116.76 2274.65 2121.02 2245.71 2099.18 2228.23 2085.98 2203.37 2089.46 2190.17 2106.93 2176.98 2124.41 2180.45 2149.28 2197.93 2162.47 2228.52 2185.56 2234.59 2229.07 2211.51 2259.66 2203.5 2270.27 2193.03 2277.93 2181.49 2282.45 2172.62 2278.52 2164.05 2273.51 2155.97 2267.41 2124.16 2243.4 2106.62 2207.49 2104.88 2170.56L2204.11 2039.12C2240.1 2030.67 2279.44 2037.7 2311.25 2061.71 2322.21 2069.99 2331.48 2079.68 2338.99 2090.33Z" fill="#92D3F5" fill-rule="evenodd"/><path d="M2270.31 2276.59C2295.54 2267.21 2327.29 2238.69 2338.49 2214.21 2346.16 2197.44 2340.42 2167.97 2338.45 2150.11 2329.52 2172.61 2302.77 2214.47 2249.67 2231.77 2204.61 2246.46 2163.08 2236.4 2142.7 2226.26 2168.65 2261.79 2227.09 2292.67 2270.31 2276.59Z" fill="#5C9E31"/><path d="M2222.58 2237.9C2220.27 2245.54 2216.6 2252.91 2211.51 2259.66 2208.27 2263.94 2204.63 2267.75 2200.68 2271.06 2177.17 2260.94 2155.8 2244.19 2142.7 2226.26 2158.9 2234.32 2188.48 2242.34 2222.58 2237.9Z" fill="#61B2E4" fill-rule="evenodd"/><path d="M2368.26 2119.47C2354.85 2083.47 2328.24 2054.84 2293.3 2038.83 2258.36 2022.84 2219.28 2021.41 2183.26 2034.81 2108.93 2062.48 2070.94 2145.47 2098.6 2219.81 2126.26 2294.15 2209.24 2332.14 2283.61 2304.48 2319.61 2291.08 2348.26 2264.45 2364.24 2229.51 2380.23 2194.57 2381.66 2155.5 2368.26 2119.47ZM2272.98 2275.92C2235.34 2289.92 2194.9 2282.57 2165 2260 2148.34 2247.44 2134.97 2230.15 2127.17 2209.18 2105.37 2150.59 2135.31 2085.18 2193.9 2063.38 2222.28 2052.82 2253.09 2053.94 2280.62 2066.54 2308.16 2079.16 2329.14 2101.71 2339.7 2130.11 2350.27 2158.49 2349.15 2189.28 2336.54 2216.83 2323.94 2244.37 2301.36 2265.35 2272.98 2275.92Z" fill="#D0CFCE"/><path d="M2051.96 2203.92 1935.51 2244.37 1871.42 2268.22C1863.16 2271.3 1855.25 2295.89 1858.33 2304.15 1859.81 2308.13 1878.3 2319.36 1878.3 2319.36L2072.14 2252.16 2051.96 2203.92Z" fill="#3F3F3F"/><path d="M2233.84 2090.22 2309 2146.96" stroke="#FFFFFF" stroke-width="19.8253" stroke-linecap="round" fill="none"/><path d="M2196.15 2099.02 2299 2176.66" stroke="#FFFFFF" stroke-width="19.8253" stroke-linecap="round" fill="none"/><path d="M2170.32 2116.79 2273.17 2194.42" stroke="#FFFFFF" stroke-width="19.8253" stroke-linecap="round" fill="none"/><path d="M2284.62 2303.26C2357.92 2277.02 2394.33 2196.2 2365.96 2122.73 2337.59 2049.27 2255.17 2010.98 2181.88 2037.22 2108.58 2063.46 2072.16 2144.28 2100.54 2217.75 2128.91 2291.21 2211.33 2329.5 2284.62 2303.26Z" stroke="#000000" stroke-width="19.8253" stroke-linecap="round" stroke-linejoin="round" stroke-miterlimit="10" fill="none"/><path d="M2272.44 2271.71C2328.35 2251.69 2356.13 2190.04 2334.49 2134 2312.84 2077.96 2249.97 2048.76 2194.06 2068.77 2138.15 2088.79 2110.37 2150.44 2132.01 2206.48 2153.66 2262.52 2216.53 2291.72 2272.44 2271.71Z" stroke="#000000" stroke-width="19.8253" stroke-linecap="round" stroke-linejoin="round" stroke-miterlimit="10" fill="none"/><path d="M2050.64 2205.84 2068.99 2253.33 1892.07 2316.67C1879.43 2321.2 1865.07 2314.23 1860.01 2301.12 1854.94 2288 1861.08 2273.7 1873.72 2269.18L2050.64 2205.84Z" stroke="#000000" stroke-width="19.8253" stroke-linecap="round" stroke-linejoin="round" stroke-miterlimit="10" fill="none"/><path d="M2265.82 2006.72 2236.17 1980.2 2143.17 1922.41 2046.29 1836.86 1974.62 1931.8 1916.57 2025.1 1837.26 2113.77 1765.59 2208.71 1832.66 2267.93M2377.82 2093.06 2426.04 2123.53 2399.17 2159.13M2256.86 2337.36 2217.02 2400.43 2145.35 2495.37 2044.44 2431.62 1955.47 2352.04 1925.88 2333.65" stroke="#000000" stroke-width="19.8253" stroke-linecap="round" stroke-linejoin="round" fill="none"/></g></g></g><g clip-path="url(#clip4)"><g clip-path="url(#clip5)"><g clip-path="url(#clip6)"><path d="M132.048 132.048 656.952 132.048 656.952 656.952 132.048 656.952Z" fill="#FFFFFF" transform="matrix(1 0 0 1 1162 1598)"/><path d="M200.757 412.033 288.423 412.033 288.423 646.651 200.757 646.651Z" fill="#B1CC33" transform="matrix(1 0 0 1 1162 1598)"/><path d="M506.823 486.331 594.49 486.331 594.49 646.542 506.823 646.542Z" fill="#92D3F5" transform="matrix(1 0 0 1 1162 1598)"/><path d="M353.735 237.686 441.402 237.686 441.402 646.651 353.735 646.651Z" fill="#D22F27" transform="matrix(1 0 0 1 1162 1598)"/><path d="M197.579 646.651 197.579 412.033 285.245 412.033 285.245 646.651" stroke="#000000" stroke-width="21.9167" stroke-linecap="round" stroke-linejoin="round" stroke-miterlimit="10" fill="none" transform="matrix(1 0 0 1 1162 1598)"/><path d="M503.755 646.651 503.755 486.44 591.421 486.44 591.421 646.651" stroke="#000000" stroke-width="21.9167" stroke-linecap="round" stroke-linejoin="round" stroke-miterlimit="10" fill="none" transform="matrix(1 0 0 1 1162 1598)"/><path d="M139.719 342.777 312.203 342.777" stroke="#000000" stroke-width="21.9167" stroke-linecap="round" stroke-linejoin="round" stroke-miterlimit="10" fill="none" transform="matrix(1 0 0 1 1162 1598)"/><path d="M476.797 447.319 651.473 447.319" stroke="#000000" stroke-width="21.9167" stroke-linecap="round" stroke-linejoin="round" stroke-miterlimit="10" fill="none" transform="matrix(1 0 0 1 1162 1598)"/><path d="M629.885 551.971 648.404 551.971" stroke="#000000" stroke-width="21.9167" stroke-linecap="round" stroke-linejoin="round" stroke-miterlimit="10" fill="none" transform="matrix(1 0 0 1 1162 1598)"/><path d="M132.048 132.048 656.952 132.048 656.952 656.952 132.048 656.952Z" stroke="#000000" stroke-width="21.9167" stroke-linecap="round" stroke-linejoin="round" stroke-miterlimit="10" fill="none" transform="matrix(1 0 0 1 1162 1598)"/><path d="M350.667 646.651 350.667 238.125 438.333 238.125 438.333 646.651" stroke="#000000" stroke-width="21.9167" stroke-linecap="round" stroke-linejoin="round" stroke-miterlimit="10" fill="none" transform="matrix(1 0 0 1 1162 1598)"/><path d="M135.774 447.319 159.115 447.319" stroke="#000000" stroke-width="21.9167" stroke-linecap="round" stroke-linejoin="round" stroke-miterlimit="10" fill="none" transform="matrix(1 0 0 1 1162 1598)"/><path d="M135.774 551.971 159.115 551.971" stroke="#000000" stroke-width="21.9167" stroke-linecap="round" stroke-linejoin="round" stroke-miterlimit="10" fill="none" transform="matrix(1 0 0 1 1162 1598)"/><path d="M476.797 342.777 651.473 342.777" stroke="#000000" stroke-width="21.9167" stroke-linecap="round" stroke-linejoin="round" stroke-miterlimit="10" fill="none" transform="matrix(1 0 0 1 1162 1598)"/><path d="M476.797 238.234 651.473 238.234" stroke="#000000" stroke-width="21.9167" stroke-linecap="round" stroke-linejoin="round" stroke-miterlimit="10" fill="none" transform="matrix(1 0 0 1 1162 1598)"/><path d="M139.719 238.234 312.203 238.234" stroke="#000000" stroke-width="21.9167" stroke-linecap="round" stroke-linejoin="round" stroke-miterlimit="10" fill="none" transform="matrix(1 0 0 1 1162 1598)"/></g></g></g><g clip-path="url(#clip7)"><g clip-path="url(#clip8)"><g clip-path="url(#clip9)"><path d="M1645.54 1448.32 2209.98 1280.14 2378.16 1844.57 1813.73 2012.76Z" fill="#A57939"/><path d="M1737.12 1497.85 2160.45 1371.71 2286.59 1795.04 1863.26 1921.18Z" fill="#92D3F5"/><path d="M1920.28 1596.92C1928.02 1622.89 1913.23 1650.23 1887.26 1657.97 1861.28 1665.71 1833.94 1650.92 1826.2 1624.95 1818.46 1598.97 1833.25 1571.64 1859.22 1563.9 1885.2 1556.15 1912.54 1570.94 1920.28 1596.92Z" fill="#FCEA2B"/><path d="M2172.98 1585.63C2135.93 1585.73 2071.14 1513.7 2050.87 1519.59 2001.29 1534.01 1997.78 1610.13 1953.06 1663.97 1924.79 1698 1923.36 1709.3 1896.52 1732.03 1873.19 1751.78 1871.75 1777.81 1871.06 1786.22 1870.22 1796.42 1862.55 1821.04 1870.69 1826.14 1889.71 1838.08 1904.85 1835.17 1932 1817.07 1954.93 1801.78 1973.68 1743.1 1991.05 1719.86 2011.84 1692.06 2036.92 1674.18 2079.1 1668.02 2109.52 1663.57 2168.53 1681.99 2181.69 1676.66 2196.69 1670.59 2153.98 1652.11 2160.78 1629.28 2168.02 1604.94 2195.53 1620.88 2199.73 1603.8 2201.57 1596.32 2181.06 1585.61 2172.98 1585.63Z" stroke="#5C9E31" stroke-width="24.5399" stroke-linecap="round" stroke-linejoin="round" stroke-miterlimit="10" fill="#5C9E31"/><path d="M1645.54 1448.32 2209.98 1280.14 2378.16 1844.57 1813.73 2012.76Z" stroke="#000000" stroke-width="24.5399" stroke-linecap="round" stroke-linejoin="round" stroke-miterlimit="10" fill="none"/><path d="M1737.12 1497.85 2160.45 1371.71 2286.59 1795.04 1863.26 1921.18Z" stroke="#000000" stroke-width="24.5399" stroke-linecap="round" stroke-linejoin="round" stroke-miterlimit="10" fill="none"/><path d="M1920.28 1596.92C1928.02 1622.89 1913.23 1650.23 1887.26 1657.97 1861.28 1665.71 1833.94 1650.92 1826.2 1624.95 1818.46 1598.97 1833.25 1571.64 1859.22 1563.9 1885.2 1556.15 1912.54 1570.94 1920.28 1596.92Z" stroke="#000000" stroke-width="24.5399" stroke-linecap="round" stroke-linejoin="round" stroke-miterlimit="10" fill="none"/><path d="M1737.12 1497.85 2160.45 1371.71 2286.59 1795.04 1863.26 1921.18Z" stroke="#000000" stroke-width="24.5399" stroke-linecap="round" stroke-linejoin="round" stroke-miterlimit="10" fill="none"/><path d="M1871.75 1777.81C1874.37 1763.98 1873.42 1752.13 1896.52 1732.03 1923.05 1708.94 1924.79 1698 1953.06 1663.97 1997.78 1610.13 2001.29 1534.01 2050.87 1519.59 2071.14 1513.7 2134.2 1584.39 2172.98 1585.63" stroke="#000000" stroke-width="24.5399" stroke-linecap="round" stroke-linejoin="round" stroke-miterlimit="10" fill="none"/></g></g></g></g></svg>