<svg width="3521" height="1588" xmlns="http://www.w3.org/2000/svg" xmlns:xlink="http://www.w3.org/1999/xlink" xml:space="preserve" overflow="hidden"><defs><clipPath id="clip0"><rect x="740" y="469" width="3521" height="1588"/></clipPath><clipPath id="clip1"><rect x="740" y="495" width="990" height="1562"/></clipPath><clipPath id="clip2"><rect x="740" y="495" width="990" height="1562"/></clipPath><clipPath id="clip3"><rect x="740" y="495" width="990" height="1562"/></clipPath><linearGradient x1="943.818" y1="1258.01" x2="450.516" y2="79.1721" gradientUnits="userSpaceOnUse" spreadMethod="pad" id="fill4"><stop offset="0" stop-color="#6C56CC"/><stop offset="1" stop-color="#9785E5"/></linearGradient><clipPath id="clip5"><rect x="3040" y="627" width="1222" height="1221"/></clipPath><clipPath id="clip6"><rect x="3040" y="627" width="1222" height="1221"/></clipPath><clipPath id="clip7"><rect x="3040" y="627" width="1222" height="1221"/></clipPath><radialGradient cx="514.5" cy="516.5" r="496.5" gradientUnits="userSpaceOnUse" spreadMethod="pad" id="fill8" gradientTransform="matrix(1.22961 0 0 1.22961 3017.87 602.408)"><stop offset="0"/><stop offset="0.91341"/><stop offset="1" stop-color="#000000" stop-opacity="0"/></radialGradient><radialGradient cx="512.059" cy="512.121" r="486.273" gradientUnits="userSpaceOnUse" spreadMethod="pad" id="fill9" gradientTransform="matrix(1.22961 0 0 1.22961 3017.87 602.408)"><stop offset="0" stop-color="#FFFFFF"/><stop offset="0.99" stop-color="#FFFFFF"/><stop offset="0.99505" stop-color="#FDFDFD"/><stop offset="0.99687" stop-color="#F6F6F6"/><stop offset="0.99817" stop-color="#EBEBEB"/><stop offset="0.99921" stop-color="#DADADA"/><stop offset="1" stop-color="#C7C7C7"/></radialGradient><radialGradient cx="512.061" cy="512.121" r="444.122" gradientUnits="userSpaceOnUse" spreadMethod="pad" id="fill10" gradientTransform="matrix(1.22961 0 0 1.22961 3017.87 602.408)"><stop offset="0" stop-color="#000000" stop-opacity="0.5"/><stop offset="0.99" stop-color="#000000" stop-opacity="0.5"/><stop offset="1" stop-color="#000000" stop-opacity="0"/></radialGradient><clipPath id="clip11"><path d="M3101.4 1232.12C3101.4 1533.72 3345.9 1778.21 3647.5 1778.21 3949.1 1778.21 4193.6 1533.72 4193.6 1232.12 4193.6 930.516 3949.1 686.021 3647.5 686.021 3345.9 686.021 3101.4 930.516 3101.4 1232.12"/></clipPath><radialGradient cx="494.061" cy="492.121" r="444.122" gradientUnits="userSpaceOnUse" spreadMethod="pad" id="fill12" gradientTransform="matrix(1.22961 0 0 1.22961 3040 627)"><stop offset="0" stop-color="#000000" stop-opacity="0.5"/><stop offset="0.99" stop-color="#000000" stop-opacity="0.5"/><stop offset="1" stop-color="#000000" stop-opacity="0"/></radialGradient><clipPath id="clip13"><path d="M3105.91 1232.12C3105.91 1531.23 3348.39 1773.7 3647.5 1773.7 3946.61 1773.7 4189.09 1531.23 4189.09 1232.12 4189.09 933.005 3946.61 690.528 3647.5 690.528 3348.39 690.528 3105.91 933.005 3105.91 1232.12"/></clipPath><radialGradient cx="5.29522" cy="1029.31" r="4.65333" gradientUnits="userSpaceOnUse" spreadMethod="pad" id="fill14" gradientTransform="matrix(116.388 0 0 -116.388 3031.2 121031)"><stop offset="0"/><stop offset="1" stop-color="#322F32"/></radialGradient><radialGradient cx="578.89" cy="473.319" r="353.942" gradientUnits="userSpaceOnUse" spreadMethod="pad" id="fill15" gradientTransform="matrix(1.22961 0 0 1.34895 3017.87 545.918)"><stop offset="0" stop-color="#C2C0C2"/><stop offset="1" stop-color="#EBEBEB"/></radialGradient><clipPath id="clip16"><rect x="1895" y="841" width="980" height="870"/></clipPath><clipPath id="clip17"><rect x="1895" y="841" width="980" height="870"/></clipPath><clipPath id="clip18"><rect x="1895" y="841" width="980" height="870"/></clipPath><clipPath id="clip19"><rect x="1895" y="841" width="980" height="870"/></clipPath></defs><g clip-path="url(#clip0)" transform="translate(-740 -469)"><g clip-path="url(#clip1)"><g clip-path="url(#clip2)"><g clip-path="url(#clip3)"><path d="M0 709.738 305.601 1412.76 739.408 1561.58 818.892 1402.3 983.795 412.101 696.62 0 201.6 273.589Z" fill="#34208C" transform="matrix(1 0 0 1.00027 742.603 495)"/><path d="M256.567 557.484 739.408 1561.58 818.892 1402.3 983.795 412.101 678.35 225.024Z" fill="url(#fill4)" transform="matrix(1 0 0 1.00027 742.603 495)"/><path d="M696.62 0 678.35 225.024 983.795 412.101Z" fill="#AF9FF4" transform="matrix(1 0 0 1.00027 742.603 495)"/><path d="M201.6 273.589 256.567 557.484 678.35 225.024 696.62 0Z" fill="#4A37A0" transform="matrix(1 0 0 1.00027 742.603 495)"/><path d="M739.408 1561.58 256.567 557.484 305.601 1412.76Z" fill="#4A37A0" transform="matrix(1 0 0 1.00027 742.603 495)"/></g></g></g><g clip-path="url(#clip5)"><g clip-path="url(#clip6)"><g clip-path="url(#clip7)"><path d="M3650.5 627C3987.67 627 4261 900.329 4261 1237.5 4261 1574.67 3987.67 1848 3650.5 1848 3313.33 1848 3040 1574.67 3040 1237.5 3040 900.328 3313.33 627 3650.5 627" fill="url(#fill8)"/><path d="M3647.5 634.191C3977.72 634.191 4245.42 901.89 4245.42 1232.12 4245.42 1562.34 3977.72 1830.04 3647.5 1830.04 3317.27 1830.04 3049.57 1562.34 3049.57 1232.12 3049.57 901.89 3317.27 634.191 3647.5 634.191" fill="url(#fill9)"/><path d="M3101.4 1232.12C3101.4 1533.72 3345.9 1778.21 3647.5 1778.21 3949.1 1778.21 4193.6 1533.72 4193.6 1232.12 4193.6 930.516 3949.1 686.021 3647.5 686.021 3345.9 686.021 3101.4 930.516 3101.4 1232.12" fill="url(#fill10)"/><g clip-path="url(#clip11)"><path d="M3101.4 686.021 4193.6 686.021 4193.6 1778.21 3101.4 1778.21Z" fill="url(#fill12)"/></g><g clip-path="url(#clip13)"><path d="M3105.91 690.528 4189.09 690.528 4189.09 1773.7 3105.91 1773.7Z" fill="url(#fill14)"/></g><path d="M3860.03 1057.98C3792.66 1175.32 3642.92 1215.82 3525.59 1148.45 3523.42 1147.2 3521.27 1145.92 3519.14 1144.61 3498.57 1131.89 3479.97 1116.24 3463.91 1098.17 3421.64 1050.52 3399.63 988.256 3402.56 924.628 3402.91 917.509 3403.5 910.411 3404.43 903.344 3405.35 896.38 3406.58 889.446 3408.09 882.596 3409.65 875.564 3411.51 868.612 3413.69 861.739 3415.79 855.05 3418.2 848.462 3420.9 841.975 3423.69 835.23 3426.81 828.629 3430.17 822.151 3433.72 815.33 3437.64 808.694 3441.83 802.251 3445.7 796.31 3449.81 790.545 3454.18 784.96 3458.92 778.872 3463.96 773 3469.27 767.405 3474.63 761.76 3480.24 756.365 3486.08 751.221 3492.03 745.98 3498.27 741.078 3504.69 736.439 3508.01 734.048 3511.38 731.748 3514.82 729.539 3369.57 803.754 3310.05 980.283 3380.69 1127.3 3381.37 1128.7 3382.05 1130.09 3382.75 1131.47 3383.06 1132.1 3383.38 1132.73 3383.7 1133.36 3383.85 1133.76 3384.04 1134.13 3384.28 1134.49 3384.67 1134.93 3384.77 1134.85 3385.38 1134.84 3388.55 1134.79 3391.72 1134.8 3394.89 1134.87 3400.75 1135 3406.6 1135.33 3412.44 1135.87 3523.46 1146.37 3613.44 1230.39 3631.51 1340.44 3635.47 1364.92 3635.74 1389.86 3632.29 1414.42 3625.75 1460.74 3606.05 1504.21 3575.53 1539.66 3558.03 1559.97 3537.37 1577.32 3514.33 1591.04 3468.33 1618.2 3414.75 1629.64 3361.67 1623.62 3352.07 1622.52 3342.55 1620.86 3333.14 1618.66 3327.05 1617.23 3321.02 1615.55 3315.05 1613.65 3341.85 1625.53 3370.25 1633.39 3399.34 1636.98 3426.48 1640.33 3453.95 1640 3481 1636 3529.38 1628.79 3575.25 1609.84 3614.62 1580.81 3643.51 1559.52 3668.38 1533.26 3688.07 1503.25 3688.92 1501.95 3689.76 1500.64 3690.6 1499.33 3690.92 1498.82 3691.64 1498.01 3691.55 1497.47 3691.22 1496.62 3690.79 1495.82 3690.26 1495.08 3688.61 1492 3687.04 1488.89 3685.53 1485.74 3682.5 1479.41 3679.74 1472.97 3677.26 1466.4 3672.24 1453.08 3668.4 1439.35 3665.78 1425.37 3660.16 1395.3 3660.18 1364.46 3665.83 1334.4 3670.64 1308.87 3679.5 1284.27 3692.09 1261.54 3734.85 1183.87 3816.26 1135.4 3904.92 1134.82 3910.94 1134.78 3916.95 1134.95 3922.95 1135.34 3928.75 1135.73 3934.52 1136.31 3940.28 1137.08 3945.97 1137.86 3951.64 1138.84 3957.28 1140.03 3962.79 1141.19 3968.27 1142.54 3973.7 1144.07 3979.02 1145.58 3984.28 1147.27 3989.49 1149.14 3994.77 1151.03 3999.98 1153.11 4005.12 1155.36 4010.36 1157.65 4015.5 1160.13 4020.56 1162.8 4025.62 1165.45 4030.58 1168.29 4035.44 1171.29 4040.01 1174.11 4044.5 1177.07 4048.86 1180.21 4053.36 1183.43 4057.76 1186.8 4062.05 1190.3 4066.48 1193.9 4070.76 1197.7 4074.91 1201.61 4079.34 1205.78 4083.61 1210.11 4087.71 1214.6 4091.81 1219.07 4095.73 1223.69 4099.48 1228.46 4103.66 1233.77 4107.64 1239.25 4111.36 1244.89 4115.17 1250.69 4118.78 1256.64 4122.11 1262.74 4126.75 1271.25 4130.89 1280.02 4134.49 1289.01 4138.38 1298.79 4141.65 1308.8 4144.3 1318.98 4137.14 1264.52 4115.16 1213.08 4080.75 1170.27 4055.46 1138.75 4024.09 1112.62 3988.52 1093.44 3952.03 1073.78 3911.86 1061.92 3870.54 1058.64 3867.04 1058.36 3863.54 1058.14 3860.03 1057.98Z" fill="url(#fill15)"/></g></g></g><g clip-path="url(#clip16)"><g clip-path="url(#clip17)"><g clip-path="url(#clip18)"><g clip-path="url(#clip19)"><path d="M9542.03 5913.01 9542.03 5464.5 8800.79 5300.5 8800.79 6066.45 9542.03 5913.01ZM9564.17 5956.73C9578.82 5953.7 9589.34 5940.8 9589.34 5925.82L9589.34 5451.87C9589.34 5437.08 9579.05 5424.27 9564.63 5421.05L8791.83 5250.12C8772.13 5245.75 8753.48 5260.72 8753.48 5280.89L8753.48 6085.78C8753.48 6105.76 8771.85 6120.73 8791.42 6116.69L9564.17 5956.73Z" fill="#D53F8C" fill-rule="evenodd" transform="matrix(1.00079 0 0 1 -6722.96 -4407.34)"/><path d="M8611.11 5440.85C8611.11 5425.87 8621.63 5412.97 8636.28 5409.94L9409.03 5249.98C9428.6 5245.94 9446.97 5260.91 9446.97 5280.89L9446.97 6085.78C9446.97 6105.95 9428.32 6120.92 9408.62 6116.6L8635.82 5945.62C8621.4 5942.4 8611.11 5929.59 8611.11 5914.8L8611.11 5440.85Z" fill="#F2E142" fill-rule="evenodd" transform="matrix(1.00079 0 0 1 -6722.96 -4407.34)"/><path d="M8799.41 5290.67 8799.41 6080.59 8753.48 6080.59 8753.48 5290.67 8799.41 5290.67Z" fill="#D53F8C" fill-rule="evenodd" transform="matrix(1.00079 0 0 1 -6722.96 -4407.34)"/></g></g></g></g><path d="M1549.76 573.677 1555.12 571.132 1560.97 568.468 1567.29 565.772 1573.98 563.149 1588.17 557.969 1603.84 552.788 1620.91 547.693 1639.25 542.681 1658.98 537.746 1679.95 532.884 1702.15 528.154 1725.64 523.495 1750.3 518.964 1776.08 514.563 1803.04 510.289 1831.06 506.206 1860.17 502.253 1890.3 498.424 1921.42 494.848 1953.53 491.399 1986.52 488.2 2020.44 485.19 2055.24 482.432 2090.83 479.862 2127.26 477.543 2164.42 475.537 2202.26 473.72 2240.88 472.216 2280.1 471.025 2319.95 470.086 2360.43 469.522 2401.4 469.208 2442.95 469.271 2485.07 469.71 2534.07 471.214 2582.4 472.842 2630.03 474.72 2676.98 476.848 2723.14 479.228 2768.47 481.92 2812.86 484.8 2856.26 487.931 2898.66 491.251 2940.01 494.822 2980.17 498.644 3019.21 502.591 3056.89 506.792 3093.32 511.182 3128.29 515.757 3145.34 518.084 3161.9 520.531 3178.15 522.915 3194.06 525.43 3209.51 527.942 3224.59 530.519 3239.27 533.101 3253.53 535.804 3267.37 538.445 3280.81 541.159 3293.83 543.94 3306.4 546.781 3318.43 549.617 3330.14 552.464 3342.72 555.734 3355.34 562.416 3343.54 584.694 3332.23 578.702 3334.95 579.762 3323.89 576.887 3324.08 576.935 3312.52 574.122 3312.61 574.143 3300.67 571.331 3300.78 571.356 3288.34 568.544 3288.49 568.576 3275.62 565.826 3275.76 565.855 3262.44 563.168 3262.57 563.193 3248.84 560.572 3234.65 557.884 3234.82 557.914 3220.25 555.351 3220.31 555.362 3205.31 552.799 3205.41 552.816 3190.04 550.316 3190.09 550.325 3174.28 547.825 3174.42 547.846 3158.22 545.469 3141.72 543.031 3141.86 543.051 3124.92 540.738 3124.99 540.748 3090.11 536.185 3090.24 536.201 3053.93 531.826 3054.04 531.839 3016.48 527.652 3016.61 527.665 2977.67 523.728 2977.74 523.735 2937.68 519.923 2937.79 519.933 2896.54 516.37 2896.64 516.378 2854.33 513.066 2854.41 513.072 2811.09 509.947 2811.18 509.953 2766.87 507.078 2766.94 507.082 2721.69 504.395 2721.79 504.4 2675.73 502.025 2675.8 502.029 2628.93 499.904 2629 499.907 2581.44 498.032 2581.51 498.035 2533.3 496.411 2484.43 494.911 2484.68 494.916 2442.74 494.479 2442.86 494.479 2401.42 494.417 2401.53 494.416 2360.66 494.729 2360.74 494.728 2320.36 495.291 2320.48 495.288 2280.73 496.226 2280.82 496.223 2241.69 497.411 2241.8 497.407 2203.3 498.907 2203.42 498.902 2165.67 500.715 2165.74 500.711 2128.68 502.711 2128.8 502.704 2092.49 505.016 2092.59 505.009 2057.09 507.572 2057.18 507.565 2022.5 510.315 2022.61 510.305 1988.8 513.305 1988.9 513.295 1956.03 516.483 1956.16 516.47 1924.16 519.907 1924.25 519.897 1893.25 523.459 1893.4 523.441 1863.4 527.254 1863.51 527.24 1834.51 531.177 1834.63 531.16 1806.76 535.223 1806.91 535.199 1780.1 539.449 1780.25 539.424 1754.62 543.799 1754.78 543.772 1730.28 548.272 1730.45 548.238 1707.14 552.863 1707.31 552.828 1685.31 557.515 1685.54 557.466 1664.79 562.278 1664.99 562.228 1645.49 567.103 1645.76 567.033 1627.7 571.971 1627.98 571.89 1611.23 576.89 1611.58 576.78 1596.27 581.842 1596.63 581.716 1582.76 586.778 1583.04 586.672 1576.66 589.172 1577.01 589.029 1571.01 591.591 1571.29 591.47 1565.66 594.033 1565.84 593.952 1560.56 596.455ZM3368.02 512.029 3449.5 627 3308.63 623.205Z" fill="#8975DD"/><path d="M3349.22 1888.85 3345.58 1890.97 3341.32 1893.31 3336.61 1895.63 3331.55 1897.96 3326.09 1900.29 3320.29 1902.57 3314.09 1904.92 3307.51 1907.18 3300.55 1909.54 3293.19 1911.86 3285.51 1914.15 3277.47 1916.51 3260.23 1921.14 3241.64 1925.82 3221.62 1930.43 3200.25 1935.03 3177.6 1939.56 3153.68 1944.09 3128.53 1948.43 3102.21 1952.76 3074.77 1956.91 3046.26 1960.99 3016.7 1964.82 2986.16 1968.58 2954.59 1972.1 2922.17 1975.42 2888.86 1978.56 2854.74 1981.38 2819.88 1984.01 2784.27 1986.33 2747.91 1988.4 2710.98 1990.16 2673.42 1991.6 2635.29 1992.66 2596.66 1993.35 2557.55 1993.67 2518.05 1993.67 2478.13 1993.16 2432.58 1991.97 2387.76 1990.6 2343.49 1988.97 2299.96 1987.03 2257.12 1984.84 2215.1 1982.39 2173.88 1979.7 2133.54 1976.76 2094.2 1973.62 2055.83 1970.24 2018.54 1966.6 1982.36 1962.78 1947.37 1958.7 1913.61 1954.5 1881.15 1950.04 1850.01 1945.39 1820.23 1940.62 1805.86 1938.1 1791.89 1935.58 1778.3 1933 1765.14 1930.42 1752.26 1927.77 1739.83 1925.06 1727.77 1922.34 1716.2 1919.56 1704.9 1916.77 1692.85 1913.5 1678.44 1906.06 1690.01 1883.66 1703.22 1890.49 1700.73 1889.52 1711.35 1892.4 1711.09 1892.33 1722.21 1895.08 1722.13 1895.06 1733.57 1897.81 1733.39 1897.77 1745.33 1900.45 1745.25 1900.44 1757.56 1903.12 1757.42 1903.09 1770.17 1905.72 1770.05 1905.69 1783.11 1908.26 1783.04 1908.24 1796.54 1910.8 1796.42 1910.78 1810.3 1913.28 1810.24 1913.27 1824.49 1915.77 1824.31 1915.74 1853.93 1920.49 1853.8 1920.47 1884.8 1925.1 1884.65 1925.08 1916.96 1929.51 1916.81 1929.49 1950.43 1933.68 1950.33 1933.67 1985.21 1937.73 1985.07 1937.72 2021.14 1941.53 2021.04 1941.52 2058.22 1945.14 2058.11 1945.13 2096.36 1948.51 2096.25 1948.5 2135.5 1951.62 2135.42 1951.62 2175.67 1954.55 2175.57 1954.55 2216.7 1957.23 2216.61 1957.23 2258.54 1959.67 2258.46 1959.66 2301.21 1961.85 2301.12 1961.85 2344.56 1963.78 2344.46 1963.78 2388.65 1965.4 2388.57 1965.4 2433.32 1966.78 2433.27 1966.78 2478.7 1967.96 2478.53 1967.96 2518.28 1968.46 2518.12 1968.46 2557.5 1968.46 2557.4 1968.46 2596.4 1968.15 2596.27 1968.15 2634.77 1967.46 2634.65 1967.46 2672.65 1966.4 2672.52 1966.41 2709.95 1964.97 2709.84 1964.97 2746.65 1963.22 2746.53 1963.23 2782.78 1961.17 2782.68 1961.17 2818.18 1958.86 2818.05 1958.87 2852.8 1956.24 2852.71 1956.25 2886.71 1953.44 2886.57 1953.45 2919.76 1950.33 2919.65 1950.34 2951.96 1947.02 2951.86 1947.04 2983.29 1943.54 2983.15 1943.55 3013.58 1939.8 3013.51 1939.81 3042.94 1936 3042.78 1936.02 3071.15 1931.96 3071.05 1931.97 3098.37 1927.85 3098.2 1927.88 3124.39 1923.56 3124.29 1923.58 3149.29 1919.27 3149.09 1919.3 3172.84 1914.8 3172.72 1914.83 3195.22 1910.33 3195.03 1910.37 3216.22 1905.8 3216.05 1905.84 3235.86 1901.28 3235.61 1901.34 3253.99 1896.71 3253.8 1896.76 3270.8 1892.2 3270.51 1892.28 3278.39 1889.97 3278.34 1889.98 3285.91 1887.73 3285.7 1887.79 3292.83 1885.54 3292.57 1885.63 3299.39 1883.31 3299.35 1883.33 3305.72 1881.14 3305.35 1881.28 3311.28 1879.03 3311.14 1879.08 3316.7 1876.9 3316.36 1877.03 3321.49 1874.84 3321.17 1874.99 3325.92 1872.8 3325.62 1872.94 3329.93 1870.82 3329.44 1871.07 3333.31 1868.95 3333.02 1869.12 3336.51 1867.08ZM1664.16 1955.92 1585.5 1839 1726.23 1846.22Z" fill="#191819"/></g></svg>