<svg width="1147" height="1298" xmlns="http://www.w3.org/2000/svg" xmlns:xlink="http://www.w3.org/1999/xlink" xml:space="preserve" overflow="hidden"><defs><clipPath id="clip0"><rect x="152" y="1259" width="1147" height="1298"/></clipPath><clipPath id="clip1"><rect x="423" y="1259" width="877" height="874"/></clipPath><clipPath id="clip2"><rect x="423" y="1259" width="877" height="874"/></clipPath><clipPath id="clip3"><rect x="423" y="1259" width="877" height="874"/></clipPath><clipPath id="clip4"><rect x="151" y="1687" width="871" height="871"/></clipPath><clipPath id="clip5"><rect x="151" y="1687" width="871" height="871"/></clipPath><clipPath id="clip6"><rect x="151" y="1687" width="871" height="871"/></clipPath></defs><g clip-path="url(#clip0)" transform="translate(-152 -1259)"><path d="M305.845 2186.09C307.971 2183.85 341.848 2082.26 350.16 2058.37 357.144 2038.29 410.704 1855.79 444.299 1725.76 444.427 1724.02 956 1717.62 956 1717.62L956 1664.41C956 1671.74 940.718 1619.89 940.718 1619.89L520.568 1612.31C519.344 1595.91 505.225 1557.63 487.914 1557.63L295.561 1555C278.711 1555 252.28 1572.79 252.28 1587.42 252.28 1587.42 260.727 2114.44 252.28 2114.44 243.834 2114.44 237 2145.31 237 2137.98 237 2137.98 242.405 2185.67 258.02 2198.56 258.239 2198.74 258.482 2198.84 258.71 2199 256.685 2196.93 303.416 2188.64 305.845 2186.09Z" fill="#9B9B9A" fill-rule="evenodd"/><path d="M945 1674.23 945 1629.78 527.481 1629.75C524.458 1629.75 522.005 1627.56 522.005 1624.87L520.956 1604.78C519.184 1581.1 500.494 1565 475.189 1565L302.817 1565C277.513 1565 257 1582.79 257 1604.73L257 2147" stroke="#000000" stroke-width="22.4392" stroke-linecap="round" stroke-linejoin="round" stroke-miterlimit="10" fill="none" fill-rule="evenodd"/><g clip-path="url(#clip1)"><g clip-path="url(#clip2)"><g clip-path="url(#clip3)"><path d="M180.262 777.374 180.935 713.56 116.077 713.157 116.077 96.6226 466.769 96.6226 530.948 160.85 668.117 160.85 668.117 777.384Z" stroke="#FFFFFF" stroke-width="24.2778" stroke-linejoin="round" fill="#FFFFFF" transform="matrix(1.00114 0 0 1 424 1259)"/><path d="M705.334 295.388 565.089 149.62 565.089 295.388" fill="#D0CFCE" transform="matrix(1.0002 0 0 1 321.746 1201.5)"/><path d="M764.797 372.959 860.477 372.959 860.477 436.66 764.797 436.66 741.166 404.81Z" fill="#92D3F5" transform="matrix(1.0002 0 0 1 321.746 1201.5)"/><path d="M700.582 616.461 796.262 616.461 796.262 680.162 700.582 680.162 676.951 648.312Z" fill="#EA5A47" transform="matrix(1.0002 0 0 1 321.746 1201.5)"/><path d="M770.576 369.235 770.576 218.33 633.414 218.33" stroke="#000000" stroke-width="24.2603" stroke-linecap="round" stroke-linejoin="round" fill="none" transform="matrix(1.00209 0 0 1 321.163 1201.32)"/><path d="M668.367 552.683 668.367 384.56" stroke="#000000" stroke-width="24.2778" stroke-linecap="round" stroke-linejoin="round" fill="none" transform="matrix(1.00114 0 0 1 424 1259)"/><path d="M282.545 810.261 282.545 834.791 770.576 834.791 770.576 684.914" stroke="#000000" stroke-width="24.2603" stroke-linecap="round" stroke-linejoin="round" fill="none" transform="matrix(1.00209 0 0 1 321.163 1201.32)"/><path d="M706.362 616.461 706.362 291.278 569.199 154.115 218.33 154.115 218.33 770.576 706.362 770.576 706.362 680.676" stroke="#000000" stroke-width="24.2603" stroke-linecap="round" stroke-linejoin="round" fill="none" transform="matrix(1.00209 0 0 1 321.163 1201.32)"/><path d="M706.362 295.388 568.942 295.388 569.199 154.115" stroke="#000000" stroke-width="24.2603" stroke-linecap="round" stroke-linejoin="round" fill="none" transform="matrix(1.00209 0 0 1 321.163 1201.32)"/><path d="M764.797 436.66 741.166 404.81 764.797 372.959 860.477 372.959 860.477 436.66Z" stroke="#000000" stroke-width="24.2603" stroke-linecap="round" stroke-linejoin="round" fill="none" transform="matrix(1.00209 0 0 1 321.163 1201.32)"/><path d="M700.582 680.162 676.951 648.312 700.582 616.461 796.262 616.461 796.262 680.162Z" stroke="#000000" stroke-width="24.2603" stroke-linecap="round" stroke-linejoin="round" fill="none" transform="matrix(1.00209 0 0 1 321.163 1201.32)"/><path d="M192.887 212.188 372.785 212.188" stroke="#000000" stroke-width="24.2778" stroke-linecap="round" stroke-linejoin="round" fill="none" transform="matrix(1.00114 0 0 1 424 1259)"/><path d="M192.887 314.883 526.949 314.883" stroke="#000000" stroke-width="24.2778" stroke-linecap="round" stroke-linejoin="round" fill="none" transform="matrix(1.00114 0 0 1 424 1259)"/><path d="M192.887 404.832 526.949 404.832" stroke="#000000" stroke-width="24.2778" stroke-linecap="round" stroke-linejoin="round" fill="none" transform="matrix(1.00114 0 0 1 424 1259)"/><path d="M192.887 507.648 526.949 507.648" stroke="#000000" stroke-width="24.2778" stroke-linecap="round" stroke-linejoin="round" fill="none" transform="matrix(1.00114 0 0 1 424 1259)"/><path d="M192.887 610.465 526.949 610.465" stroke="#000000" stroke-width="24.2778" stroke-linecap="round" stroke-linejoin="round" fill="none" transform="matrix(1.00114 0 0 1 424 1259)"/></g></g></g><path d="M402.879 1724C402.879 1725.04 402.752 1726.06 402.483 1727.07 398.282 1743.3 299.569 2124.73 289.965 2152.3 284.832 2167.08 275.305 2182.85 263 2195.86L921.814 2196C939.206 2196 945.067 2196 954.702 2164.36 964.904 2130.87 1057.06 1763.69 1066.9 1724.47 1066.93 1724.35 1067 1724 1067 1724L402.879 1724Z" fill="#D0CFCE" fill-rule="evenodd"/><path d="M302.543 2133.69C293.53 2159.56 268.578 2188.48 243 2191.86L914.167 2192C939.49 2192 949.674 2186.19 960.017 2152.29 970.359 2118.39 1067 1733.24 1067 1733.24 1067 1725.93 1060.16 1720 1051.72 1720L423.859 1720C415.418 1720 408.576 1725.93 408.576 1733.24 408.576 1733.24 311.555 2107.83 302.543 2133.69Z" stroke="#000000" stroke-width="22.4392" stroke-linecap="round" stroke-linejoin="round" stroke-miterlimit="10" fill="none" fill-rule="evenodd"/><g clip-path="url(#clip4)"><g clip-path="url(#clip5)"><g clip-path="url(#clip6)"><path d="M713.875 2363.67 593.042 2228.92 472.208 2363.67 472.208 1819.41 713.875 1819.41Z" fill="#EA5A47"/><path d="M657.854 1832.37 657.854 2289.77 712.51 2350.71 712.51 1832.37Z" fill="#D22F27"/><path d="M713.875 2363.67 593.042 2228.92 472.208 2363.67 472.208 1819.41 713.875 1819.41Z" stroke="#000000" stroke-width="24.1667" stroke-linecap="round" stroke-linejoin="round" stroke-miterlimit="10" fill="none"/><path d="M713.875 2363.67 593.042 2228.92 472.208 2363.67 472.208 1819.41 713.875 1819.41Z" stroke="#000000" stroke-width="24.1667" stroke-linecap="round" stroke-linejoin="round" stroke-miterlimit="10" fill="none"/></g></g></g></g></svg>