<svg width="1282" height="1248" xmlns="http://www.w3.org/2000/svg" xmlns:xlink="http://www.w3.org/1999/xlink" xml:space="preserve" overflow="hidden"><defs><clipPath id="clip0"><rect x="47" y="187" width="1282" height="1248"/></clipPath><clipPath id="clip1"><rect x="309" y="187" width="742" height="742"/></clipPath><clipPath id="clip2"><rect x="309" y="187" width="742" height="742"/></clipPath><clipPath id="clip3"><rect x="309" y="187" width="742" height="742"/></clipPath><clipPath id="clip4"><rect x="47" y="563" width="740" height="741"/></clipPath><clipPath id="clip5"><rect x="47" y="563" width="740" height="741"/></clipPath><clipPath id="clip6"><rect x="47" y="563" width="740" height="741"/></clipPath><clipPath id="clip7"><path d="M469.668 481.249 1328.08 576.538 1232.79 1434.95 374.379 1339.66Z" fill-rule="evenodd" clip-rule="evenodd"/></clipPath><clipPath id="clip8"><path d="M469.668 481.249 1328.08 576.538 1232.79 1434.95 374.379 1339.66Z" fill-rule="evenodd" clip-rule="evenodd"/></clipPath><clipPath id="clip9"><path d="M469.668 481.249 1328.08 576.538 1232.79 1434.95 374.379 1339.66Z" fill-rule="evenodd" clip-rule="evenodd"/></clipPath></defs><g clip-path="url(#clip0)" transform="translate(-47 -187)"><g clip-path="url(#clip1)"><g clip-path="url(#clip2)"><g clip-path="url(#clip3)"><path d="M763.72 814.363C763.72 865.392 844.408 886.833 844.408 886.833L683.647 886.833 679.741 886.833 518.98 886.833C518.98 886.833 599.668 865.393 599.668 814.363L599.668 763.588 762.055 763.588 763.72 814.363Z" fill="#D0CFCE"/><path d="M959.373 763.333 404.016 763.333C375.172 763.333 351.79 739.951 351.79 711.107L351.79 352.006C351.79 323.163 375.172 299.78 404.016 299.78L959.373 299.78C988.216 299.78 1011.6 323.163 1011.6 352.006L1011.6 711.107C1011.6 739.951 988.216 763.333 959.373 763.333Z" fill="#9B9B9A"/><path d="M1004.17 667.841 352.361 436.065 352.361 338.73C352.361 319.737 371.164 306.466 389.06 312.829L1004.17 531.556 1004.17 667.841Z" fill="#FFFFFF"/><path d="M1011.6 676.502C1011.6 676.502 1013.34 726.474 995.648 746.799 977.959 767.124 988.216 763.302 959.373 763.302L404.016 763.302C375.172 763.302 361.161 744.241 361.161 738.155L351.79 676.502" fill="#D0CFCE"/><path d="M959.373 763.333 404.016 763.333C375.172 763.333 351.79 739.951 351.79 711.107L351.79 352.006C351.79 323.163 375.172 299.78 404.016 299.78L959.373 299.78C988.216 299.78 1011.6 323.163 1011.6 352.006L1011.6 711.107C1011.6 739.951 988.216 763.333 959.373 763.333Z" stroke="#000000" stroke-width="20.5833" stroke-linecap="round" stroke-linejoin="round" stroke-miterlimit="10" fill="none"/><path d="M1011.6 676.502C1011.6 676.502 1013.34 726.474 995.648 746.799 977.959 767.124 988.216 763.302 959.373 763.302L404.016 763.302C375.172 763.302 361.161 744.241 361.161 738.155L351.79 676.502" stroke="#000000" stroke-width="9.45496" stroke-linecap="round" stroke-linejoin="round" stroke-miterlimit="10" fill="none"/><path d="M959.373 763.333 404.016 763.333C375.172 763.333 351.79 739.951 351.79 711.107L351.79 352.006C351.79 323.163 375.172 299.78 404.016 299.78L959.373 299.78C988.216 299.78 1011.6 323.163 1011.6 352.006L1011.6 711.107C1011.6 739.951 988.216 763.333 959.373 763.333Z" stroke="#000000" stroke-width="20.5833" stroke-linecap="round" stroke-linejoin="round" stroke-miterlimit="10" fill="none"/><path d="M383.236 686.068 980.153 686.068" stroke="#000000" stroke-width="20.5833" stroke-linecap="round" stroke-linejoin="round" stroke-miterlimit="10" fill="none"/><path d="M753.428 814.363C753.428 865.392 844.408 886.833 844.408 886.833L683.647 886.833 679.741 886.833 518.98 886.833C518.98 886.833 609.959 865.393 609.959 814.363" stroke="#000000" stroke-width="20.5833" stroke-linecap="round" stroke-linejoin="round" stroke-miterlimit="10" fill="none"/></g></g></g><g clip-path="url(#clip4)"><g clip-path="url(#clip5)"><g clip-path="url(#clip6)"><path d="M629.171 222.422 389.641 154.563C387.779 154.038 385.808 154.044 383.95 154.583L151.727 222.694C151.24 222.901 150.771 223.149 150.324 223.433 120.758 231.143 103.04 261.361 110.75 290.927 113.95 303.194 121.264 313.99 131.471 321.509 106.925 339.525 101.63 374.029 119.647 398.576 123.131 403.323 127.353 407.482 132.153 410.893 107.295 428.609 101.504 463.121 119.22 487.978 126.15 497.704 136.045 504.922 147.421 508.555L383.96 577.547C385.82 578.09 387.797 578.097 389.661 577.568L629.192 509.206C633.605 507.944 636.647 503.91 636.648 499.32L636.648 232.309C636.647 227.712 633.594 223.675 629.171 222.422Z" fill="#FFFFFF" transform="matrix(1 0 0 1 47.0001 563)"/><path d="M386.835 164.198 626.369 232.062 386.835 300.43 154.619 232.309 386.835 164.198Z" fill="#92D3F5" transform="matrix(1 0 0 1 47.0001 563)"/><path d="M155.012 254.144 381.055 320.399C384.781 321.492 388.741 321.505 392.476 320.439L631.894 250.907C634.552 250.135 636.395 247.72 636.437 244.952L636.631 232.097 386.836 300.673 154.989 232.714C130.568 237.947 115.011 261.986 120.244 286.407 123.609 302.113 135.053 314.855 150.308 319.883L386.841 388.878 635.681 317.859 636.092 305.091C636.206 301.542 633.421 298.573 629.872 298.459 629.207 298.438 628.543 298.52 627.903 298.703L386.899 367.484 156.444 300.267C143.559 295.845 136.699 281.813 141.122 268.928 143.418 262.237 148.477 256.855 155.012 254.148" fill="#61B2E4" transform="matrix(1 0 0 1 47.0001 563)"/><path d="M155.012 343.372 381.055 409.628C384.781 410.721 388.741 410.735 392.476 409.669L631.894 340.137C634.552 339.365 636.395 336.949 636.437 334.182L636.631 321.326 386.836 389.903 154.989 321.944C130.568 327.176 115.011 351.215 120.244 375.636 123.609 391.343 135.053 404.085 150.308 409.113L386.841 478.108 635.681 407.088 636.092 394.319C636.207 390.771 633.422 387.803 629.874 387.689 629.208 387.667 628.543 387.75 627.903 387.933L386.899 456.713 156.444 389.497C143.559 385.074 136.699 371.043 141.122 358.158 143.418 351.467 148.477 346.085 155.012 343.377" fill="#D22F27" transform="matrix(1 0 0 1 47.0001 563)"/><path d="M155.012 433.259 381.055 499.514C384.781 500.607 388.741 500.62 392.476 499.554L631.894 430.022C634.552 429.25 636.395 426.835 636.437 424.067L636.631 411.213 386.836 479.788 154.989 411.83C130.568 417.063 115.011 441.102 120.244 465.523 123.609 481.229 135.053 493.971 150.308 498.999L386.841 567.994 635.681 496.975 636.092 484.205C636.207 480.658 633.422 477.689 629.874 477.575 629.208 477.554 628.543 477.636 627.903 477.819L386.899 546.6 156.444 479.383C143.559 474.961 136.699 460.929 141.122 448.044 143.418 441.353 148.477 435.971 155.012 433.264" fill="#5C9E31" transform="matrix(1 0 0 1 47.0001 563)"/><path d="M455.511 182.883 396.66 166.212 164.444 234.323 224.158 251.847 455.511 182.883Z" fill="#61B2E4" transform="matrix(1 0 0 1 47.0001 563)"/><path d="M386.835 164.444 626.369 232.309 386.835 300.676 154.619 232.555 386.835 164.444Z" stroke="#000000" stroke-width="20.5555" stroke-linecap="round" stroke-linejoin="round" fill="none" transform="matrix(1 0 0 1 47.0001 563)"/><path d="M154.989 232.714C130.568 237.947 115.011 261.986 120.244 286.407 123.609 302.113 135.053 314.855 150.308 319.883L386.842 388.878 626.373 320.514" stroke="#000000" stroke-width="20.5555" stroke-linecap="round" stroke-linejoin="round" fill="none" transform="matrix(1 0 0 1 47.0001 563)"/><path d="M154.989 321.635C130.568 326.867 115.011 350.906 120.244 375.327 123.609 391.033 135.053 403.776 150.308 408.804L386.842 477.798 626.373 409.435" stroke="#000000" stroke-width="20.5555" stroke-linecap="round" stroke-linejoin="round" fill="none" transform="matrix(1 0 0 1 47.0001 563)"/><path d="M154.989 411.522C130.568 416.754 115.011 440.793 120.244 465.214 123.609 480.921 135.053 493.663 150.308 498.691L386.842 567.686 626.373 499.322" stroke="#000000" stroke-width="20.5555" stroke-linecap="round" stroke-linejoin="round" fill="none" transform="matrix(1 0 0 1 47.0001 563)"/></g></g></g><g clip-path="url(#clip7)"><g clip-path="url(#clip8)"><g clip-path="url(#clip9)"><path d="M646.282 926.756 1058.36 728.909C1058.36 728.909 1200.09 772.953 1155.12 908.435L1024.19 1000.14 737.668 1173.66C737.668 1173.66 785.476 1097.97 750.601 1046.65 718.917 1004.1 684.044 964.018 646.282 926.756Z" fill="#D0CFCE"/><path d="M694.924 977.943 656.81 1003.37C656.81 1003.37 715.923 1032.7 716.633 1068.78 717.343 1104.86 711.199 1129.91 701.972 1144.24 692.744 1158.56 679.7 1178.09 605.372 1176 605.372 1176 643.411 1223.88 670.037 1213.83 696.663 1203.79 748.216 1183.41 751.858 1165.07 755.5 1146.72 770.134 1066.75 756.443 1051.16 742.752 1035.58 694.924 977.943 694.924 977.943Z" fill="#9B9B9A"/><path d="M589.793 1176.43C589.793 1176.43 552.235 1178.81 559.862 1061.17 559.862 1061.17 593.629 996.619 631.428 1009.37 631.428 1009.37 706.499 1028.42 675.33 1091.52 675.33 1091.52 648.858 1031.46 620.66 1061.59 620.66 1061.59 583.687 1123.26 627.278 1152.36 627.278 1152.36 672.393 1166.91 682.441 1158.48 692.49 1150.04 661.854 1212.92 589.793 1176.43Z" fill="#D0CFCE"/><path d="M668.145 1026.33C677.491 1047.62 676.786 1071.97 666.227 1092.68 666.227 1092.68 657.742 1146.72 618.664 1124.29 618.664 1124.29 621.572 1152.83 660.763 1154.29 660.763 1154.29 724.964 1155.64 720.065 1078.96 720.07 1078.96 700.195 1030.62 668.145 1026.33Z" fill="#9B9B9A"/><path d="M661.719 1084.22C661.719 1084.22 655.165 1053.11 627.51 1060.89 627.51 1060.89 601.383 1089.1 611.917 1117.03 611.513 1125.96 615.513 1134.51 622.619 1139.93 622.619 1139.93 661.567 1135.98 663.879 1102.02Z" fill="#D0CFCE"/><path d="M971.755 1029.59C998.404 967.838 980.819 895.897 928.688 853.399L781.031 923.777C781.031 923.777 886.145 1004.9 842.066 1115.75Z" fill="#3F3F3F"/><path d="M1020.61 745.051C1040.34 736.216 1062.39 724.976 1084.08 731.766 1136.3 750.293 1172.63 797.94 1176.68 853.203 1179.48 888.713 1153.26 918.321 1126.21 935.645" stroke="#000000" stroke-width="23.9913" stroke-linecap="round" stroke-linejoin="round" fill="none"/><path d="M752.432 1050.72C752.432 1050.72 724.081 983.531 640.275 929.673L1020.61 745.051" stroke="#000000" stroke-width="23.9913" stroke-linecap="round" stroke-linejoin="round" fill="none"/><path d="M715.277 1195.43 1126.21 935.645" stroke="#000000" stroke-width="23.9913" stroke-linecap="round" stroke-linejoin="round" fill="none"/><path d="M666.227 1092.68C671.375 1055.63 643.596 1053.99 643.596 1053.99 624.39 1050.62 613.855 1067.56 608.361 1082.64 603.317 1096.23 603.131 1111.15 607.833 1124.87 627.047 1179.02 683.631 1156.98 683.631 1156.98 707.671 1144.72 722.502 1119.71 721.731 1092.74 721.908 1087.31 721.15 1081.88 719.489 1076.71 711.869 1047.08 690.073 1023.15 661.287 1012.81 626.238 1001.89 588.332 1017.05 570.49 1049.13 566.923 1055.25 563.828 1061.64 561.233 1068.23 559.858 1071.71 558.817 1075.32 558.123 1079 550.024 1119.03 563.831 1160.35 594.37 1187.46 674.87 1249.97 737.672 1173.66 737.672 1173.66 761.346 1145.6 769.526 1107.6 759.496 1072.29 740.954 992.446 640.276 929.673 640.276 929.673" stroke="#000000" stroke-width="23.9913" stroke-linecap="round" stroke-linejoin="round" fill="none"/><path d="M607.637 1015.68C611.976 1013.88 688.023 977.174 688.023 977.174" stroke="#000000" stroke-width="23.9913" stroke-linecap="round" stroke-linejoin="round" fill="none"/><path d="M1058.51 976.1C1073.18 861.138 992.178 811.993 992.178 811.993" stroke="#000000" stroke-width="23.9913" stroke-linecap="round" stroke-linejoin="round" fill="none"/><path d="M1126.21 935.641C1136.67 884.601 1117.1 832.069 1075.81 800.3" stroke="#000000" stroke-width="23.9913" stroke-linecap="round" stroke-linejoin="round" fill="none"/><path d="M971.755 1029.59C998.404 967.838 980.819 895.897 928.688 853.399L781.031 923.777C781.031 923.777 886.145 1004.9 842.066 1115.75Z" stroke="#000000" stroke-width="23.9913" stroke-linecap="round" stroke-linejoin="round" fill="none"/></g></g></g></g></svg>