<svg width="213" height="189" xmlns="http://www.w3.org/2000/svg" xmlns:xlink="http://www.w3.org/1999/xlink" xml:space="preserve" overflow="hidden"><defs><clipPath id="clip0"><rect x="1875" y="1143" width="213" height="189"/></clipPath></defs><g clip-path="url(#clip0)" transform="translate(-1875 -1143)"><path d="M2077.7 1287.51 2077.7 1189.85 1916.3 1154.14 1916.3 1320.92 2077.7 1287.51ZM2082.52 1297.03C2085.71 1296.37 2088 1293.56 2088 1290.3L2088 1187.1C2088 1183.88 2085.76 1181.09 2082.62 1180.39L1914.35 1143.17C1910.06 1142.22 1906 1145.48 1906 1149.87L1906 1325.13C1906 1329.48 1910 1332.74 1914.26 1331.86L2082.52 1297.03Z" fill="#D53F8C" fill-rule="evenodd"/><path d="M1875 1184.7C1875 1181.44 1877.29 1178.63 1880.48 1177.97L2048.74 1143.14C2053 1142.26 2057 1145.52 2057 1149.87L2057 1325.13C2057 1329.52 2052.94 1332.78 2048.65 1331.84L1880.38 1294.61C1877.24 1293.91 1875 1291.12 1875 1287.9L1875 1184.7Z" fill="#F2E142" fill-rule="evenodd"/><path d="M1916 1152 1916 1324 1906 1324 1906 1152 1916 1152Z" fill="#D53F8C" fill-rule="evenodd"/></g></svg>